<?xml version="1.0" encoding="UTF-8"?>
<!DOCTYPE svg PUBLIC "-//W3C//DTD SVG 1.1//EN" "http://www.w3.org/Graphics/SVG/1.1/DTD/svg11.dtd">
<!-- Creator: CorelDRAW -->
<svg xmlns="http://www.w3.org/2000/svg" xml:space="preserve" width="2048px" height="2048px" style="shape-rendering:geometricPrecision; text-rendering:geometricPrecision; image-rendering:optimizeQuality; fill-rule:evenodd; clip-rule:evenodd"
viewBox="0 0 2048 2048"
 xmlns:xlink="http://www.w3.org/1999/xlink">
 <defs>
  <style type="text/css">
   <![CDATA[
    .fil1 {fill:none}
    .fil0 {fill:#424242}
    .fil2 {fill:white}
   ]]>
  </style>
 </defs>
 <rect class="fil0" width="2048" height="2048"/>
 <g id="Layer_x0020_1">
  <metadata id="CorelCorpID_0Corel-Layer"/>
  <rect class="fil1" width="2048" height="2048"/>
  <rect class="fil1" x="255.999" y="255.999" width="1536" height="1536"/>
  <rect class="fil1" x="255.999" y="255.999" width="1536" height="1536"/>
  <g id="_253558456">
   <rect id="_253558624" class="fil1" x="255.999" y="255.999" width="1536" height="1536"/>
   <path id="_253558528" class="fil2" d="M1384.17 363.587l-204.3 0 0 -34.8024c0,-40.1481 -32.6374,-72.7855 -72.9178,-72.7855l-165.931 0c-40.2449,0 -72.7772,32.6374 -72.7772,72.7855l0 34.8024 -204.275 0c-92.6717,0 -168.114,75.3012 -168.114,167.974l0 1092.46c0,92.5394 75.4418,167.973 168.114,167.973l720.201 0c92.6375,0 167.974,-75.4335 167.974,-167.973l0 -1092.46c0.13937,-92.6729 -75.3367,-167.974 -167.974,-167.974zm-8.74607 73.9607l-257.254 0 0 -91.8745c0,-7.28268 -5.98583,-13.102 -13.2343,-13.102l-161.9 0c-7.24725,0 -13.0937,5.84528 -13.0937,13.102l0 91.8745 -257.227 0c-58.4304,0 -106.116,47.5016 -106.116,105.976l0 1065.92c0,58.4032 47.7473,105.976 106.116,105.976l702.708 0c58.3689,0 105.976,-47.6067 105.976,-105.976l0 -1065.92c0,-58.4386 -47.5453,-105.976 -105.976,-105.976zm45.091 873.04l-436.637 0c-14.9516,0 -27.0638,12.0945 -27.0638,27.0366 0,14.9516 12.1122,27.0638 27.0638,27.0638l436.637 0c14.9516,0 27.0555,-12.1122 27.0555,-27.0638 0,-14.9421 -12.1039,-27.0366 -27.0555,-27.0366zm0 -264.484l-436.637 0c-14.9516,0 -27.0638,11.9634 -27.0638,27.0638 0,14.837 12.1122,26.9492 27.0638,26.9492l436.637 0c14.9516,0 27.0555,-12.1122 27.0555,-26.9492 0,-15.1004 -12.1039,-27.0638 -27.0555,-27.0638zm0 -264.598l-436.647 0c-14.9421,0 -27.0626,12.1122 -27.0626,27.0898 0,14.9516 12.1205,26.8973 27.0626,26.8973l436.647 0c14.9516,0 27.0555,-11.9457 27.0555,-26.8973 0,-14.9776 -12.1039,-27.0898 -27.0555,-27.0898zm-628.345 685.591l0 0c-0.148819,8.12481 -6.66851,14.6539 -14.6528,14.6539l-125.739 0c-8.13308,0 -14.6894,-6.52914 -14.6894,-14.6539l0 -138.447c0,-8.08111 6.5563,-14.6539 14.6894,-14.6539l125.739 0c7.98426,0 14.5039,6.57284 14.5039,14.6539l0 6.2752 -36.3012 43.4256c-9.66615,11.4201 -26.2134,12.3933 -37.1599,2.30551l-22.5319 -20.7886c-10.7799,-10.2886 -28.0276,-9.55276 -38.1248,1.41969 -10.1398,10.9382 -9.41221,28.0453 1.42087,38.1674l63.0662 58.5189c4.98662,4.71496 11.5252,7.26497 18.378,7.26497 0.570473,0 0.990946,0 1.71851,-0.157087 7.39607,-0.394488 14.2063,-3.82205 18.9213,-9.50079l30.7618 -36.6083 0 48.1241zm44.8819 -185.861l-21.6567 25.924c-7.54607,-13.2331 -21.6555,-22.3477 -37.878,-22.3477l-125.739 0c-24.2067,0 -43.7504,19.6394 -43.7504,43.8378l0 138.447c0,24.2067 19.5437,43.8555 43.7504,43.8555l125.739 0c24.0567,0 43.715,-19.6488 43.715,-43.8555l0 -82.865 57.2304 -68.2193c9.54331,-11.5606 8.13308,-28.5095 -3.26929,-38.1685 -11.5158,-9.56103 -28.4835,-7.99253 -38.1414,3.39213zm-44.8819 -111.787l0 0c-0.148819,7.98426 -6.66851,14.5051 -14.6528,14.5051l-125.739 0c-8.13308,0 -14.6894,-6.52087 -14.6894,-14.5051l0 -138.569c0,-7.98426 6.5563,-14.6717 14.6894,-14.6717l125.739 0c7.98426,0 14.5039,6.68741 14.5039,14.6717l0 8.66812 -36.3012 43.6016c-9.66615,11.3847 -26.2134,12.4004 -37.1599,2.26063l-22.5319 -20.7709c-10.7799,-10.2449 -28.0276,-9.56221 -38.1248,1.27913 -10.1398,10.9724 -9.41221,28.063 1.42087,38.3079l63.0662 58.5189c4.98662,4.70552 11.5252,7.14213 18.378,7.14213 0.570473,0 0.990946,0 1.71851,0 7.39607,-0.438189 14.2063,-4.01339 18.9213,-9.54331l30.7618 -36.6166 0 45.7217zm44.8819 -183.424l-20.9646 24.9071c-7.2567,-14.0835 -21.7606,-23.7673 -38.5701,-23.7673l-125.739 0c-24.2067,0 -43.7504,19.6488 -43.7504,43.715l0 138.569c0,24.0662 19.5437,43.7067 43.7504,43.7067l125.739 0c24.0567,0 43.715,-19.6406 43.715,-43.7067l0 -80.4544 57.2304 -68.3693c9.54331,-11.4106 8.13308,-28.4658 -3.26929,-38.0185 -11.5158,-9.56221 -28.4835,-7.99253 -38.1414,3.41811zm-44.8819 -116.765l0 0c-0.148819,7.94056 -6.66851,14.5134 -14.6528,14.5134l-125.739 0c-8.13308,0 -14.6894,-6.57284 -14.6894,-14.5134l0 -138.587c0,-7.98426 6.5563,-14.5394 14.6894,-14.5394l125.739 0c7.98426,0 14.5039,6.55512 14.5039,14.5394l0 15.2492 -36.3012 43.4268c-9.66615,11.3929 -26.2134,12.3921 -37.1599,2.2878l-22.5319 -20.8063c-10.7799,-10.2543 -28.0276,-9.52678 -38.1248,1.41969 -10.1398,10.8154 -9.41221,27.9225 1.42087,38.1591l63.0662 58.5615c4.98662,4.7067 11.5252,7.10788 18.378,7.10788 0.570473,0 0.990946,0 1.71851,0 7.39607,-0.446457 14.2063,-3.97914 18.9213,-9.56103l30.7618 -36.6083 0 39.3508zm44.8819 -177.044l-18.9567 22.5059c-6.26693,-16.2307 -22.0595,-27.7465 -40.578,-27.7465l-125.739 0c-24.2067,0 -43.7504,19.4906 -43.7504,43.6973l0 138.587c0,24.0579 19.5437,43.7067 43.7504,43.7067l125.739 0c24.0567,0 43.715,-19.6488 43.715,-43.7067l0 -74.2323 57.2304 -68.2193c9.54331,-11.3764 8.13308,-28.4575 -3.26929,-38.0185 -11.5158,-9.50906 -28.4835,-7.95001 -38.1414,3.42638z"/>
  </g>
 </g>
</svg>
